<?xml version="1.0" encoding="UTF-8"?>
<svg width="24px" height="24px" viewBox="0 0 24 24" version="1.1" xmlns="http://www.w3.org/2000/svg">
    <g stroke="none" stroke-width="1" fill="none" fill-rule="evenodd">
        <circle fill="#0068FF" cx="12" cy="12" r="12"/>
        <path d="M16.5,8.5 C16.5,7.11928813 15.3807119,6 14,6 L10,6 C8.61928813,6 7.5,7.11928813 7.5,8.5 L7.5,15.5 C7.5,16.8807119 8.61928813,18 10,18 L14,18 C15.3807119,18 16.5,16.8807119 16.5,15.5 L16.5,8.5 Z" fill="#FFFFFF"/>
        <path d="M12,14 C13.1045695,14 14,13.1045695 14,12 C14,10.8954305 13.1045695,10 12,10 C10.8954305,10 10,10.8954305 10,12 C10,13.1045695 10.8954305,14 12,14 Z" fill="#0068FF"/>
    </g>
</svg> 